#!OML:ASF H:\Dans Jumps\Project 1\Capture day 1\Session 1\subject.ASF
:FULLY-SPECIFIED
:DEGREES
88
root 0.470638 17.5362 -14.1379 6.21361 -1.03142 -1.60266
lowerback -1.84941 -0.267681 0.0626158
upperback 3.34955 -0.421721 1.52815
thorax 4.50146 -0.23685 1.51838
lowerneck -13.9414 -0.347053 -2.70639
upperneck 28.3739 -0.50216 2.40529
head 11.5585 -0.218591 1.28424
rclavicle -1.04362e-014 4.17448e-015
rhumerus -22.3576 -18.8315 -79.8549
rradius 22.3338
rwrist 36.0129
rhand -17.4504 -26.0032
rfingers 7.12502
rthumb 8.80076 -55.7997
lclavicle -1.04362e-014 4.17448e-015
lhumerus -19.9811 6.01415 85.2612
lradius 16.8616
lwrist -2.5909
lhand -23.7498 -2.91081
lfingers 7.12502
lthumb 2.71904 27.0516
rfemur -13.2969 -2.10744 19.3426
rtibia 21.4578
rfoot -13.4246 -3.20242
rtoes 6.54103
lfemur -12.7686 7.31149 -17.8491
ltibia 20.0649
lfoot -11.3277 4.96306
ltoes -0.582875
89
root 0.469983 17.5359 -14.1391 6.21385 -1.02675 -1.60283
lowerback -1.84402 -0.269472 0.0585193
upperback 3.3522 -0.423965 1.52899
thorax 4.50126 -0.238134 1.52144
lowerneck -13.9402 -0.341794 -2.69439
upperneck 28.3759 -0.494124 2.39265
head 11.5587 -0.215282 1.27863
rclavicle -3.03147e-015 -5.76476e-015
rhumerus -22.3436 -18.8251 -79.8619
rradius 22.3345
rwrist 36.002
rhand -17.458 -26.0027
rfingers 7.12502
rthumb 8.79342 -55.7995
lclavicle -3.03147e-015 -5.76476e-015
lhumerus -19.9779 6.00647 85.2694
lradius 16.8637
lwrist -2.58395
lhand -23.7489 -2.92079
lfingers 7.12502
lthumb 2.7199 27.0416
rfemur -13.3052 -2.0972 19.3448
rtibia 21.4691
rfoot -13.4289 -3.21398
rtoes 6.55876
lfemur -12.7782 7.30908 -17.8463
ltibia 20.0732
lfoot -11.3257 4.96026
ltoes -0.593496
90
root 0.469318 17.5357 -14.1402 6.21376 -1.02289 -1.60229
lowerback -1.83982 -0.270953 0.0530245
upperback 3.35522 -0.425753 1.52977
thorax 4.50211 -0.239242 1.52525
lowerneck -13.938 -0.337303 -2.68465
upperneck 28.3767 -0.486854 2.38091
head 11.5583 -0.212448 1.27361
rclavicle 6.4605e-015 -2.98177e-015
rhumerus -22.3313 -18.8166 -79.8685
rradius 22.3371
rwrist 35.9937
rhand -17.4635 -26.0038
rfingers 7.12502
rthumb 8.78807 -55.8008
lclavicle 6.4605e-015 -2.98177e-015
lhumerus -19.976 5.99153 85.2793
lradius 16.8685
lwrist -2.57041
lhand -23.7387 -2.90312
lfingers 7.12502
lthumb 2.72976 27.0592
rfemur -13.3137 -2.08874 19.3464
rtibia 21.4814
rfoot -13.4345 -3.22454
rtoes 6.5653
lfemur -12.788 7.30721 -17.8444
ltibia 20.0831
lfoot -11.3254 4.95732
ltoes -0.597652
91
root 0.468674 17.5355 -14.1414 6.21369 -1.02048 -1.60001
lowerback -1.83597 -0.271895 0.0453684
upperback 3.3584 -0.426733 1.53039
thorax 4.50334 -0.240022 1.53014
lowerneck -13.9345 -0.335804 -2.68703
upperneck 28.375 -0.482851 2.37671
head 11.5569 -0.211435 1.27299
rclavicle -9.0447e-015 1.11319e-014
rhumerus -22.319 -18.8043 -79.8751
rradius 22.3415
rwrist 35.9837
rhand -17.4672 -26.0045
rfingers 7.12502
rthumb 8.78455 -55.8017
lclavicle -9.0447e-015 1.11319e-014
lhumerus -19.9747 5.97509 85.2909
lradius 16.876
lwrist -2.55574
lhand -23.7224 -2.87279
lfingers 7.12502
lthumb 2.74544 27.0893
rfemur -13.3222 -2.08155 19.3456
rtibia 21.4952
rfoot -13.4429 -3.22886
rtoes 6.60119
lfemur -12.7976 7.30454 -17.8446
ltibia 20.0935
lfoot -11.3255 4.95628
ltoes -0.593793
92
root 0.468046 17.5353 -14.1426 6.21288 -1.01628 -1.59839
lowerback -1.83007 -0.27261 0.0384396
upperback 3.36223 -0.427429 1.53103
thorax 4.50405 -0.240638 1.53467
lowerneck -13.9377 -0.336955 -2.69818
upperneck 28.3793 -0.483066 2.38216
head 11.5592 -0.212039 1.27697
rclavicle 1.93815e-015 -6.36111e-015
rhumerus -22.3052 -18.7972 -79.881
rradius 22.345
rwrist 35.981
rhand -17.4706 -26.002
rfingers 7.12502
rthumb 8.7812 -55.7993
lclavicle 1.93815e-015 -6.36111e-015
lhumerus -19.9704 5.95286 85.3039
lradius 16.883
lwrist -2.54008
lhand -23.702 -2.83391
lfingers 7.12502
lthumb 2.76514 27.1279
rfemur -13.331 -2.07785 19.3457
rtibia 21.5101
rfoot -13.4513 -3.23204
rtoes 6.63072
lfemur -12.8072 7.29972 -17.844
ltibia 20.1042
lfoot -11.3255 4.95568
ltoes -0.588547
93
root 0.467437 17.5351 -14.1438 6.21199 -1.01188 -1.59561
lowerback -1.82473 -0.272797 0.0305315
upperback 3.3666 -0.427365 1.53099
thorax 4.50563 -0.240901 1.5391
lowerneck -13.9445 -0.33802 -2.70762
upperneck 28.3877 -0.484502 2.39071
head 11.5639 -0.21262 1.28168
rclavicle -6.60959e-015 -1.88845e-014
rhumerus -22.2926 -18.7879 -79.8876
rradius 22.3507
rwrist 35.9768
rhand -17.475 -25.9996
rfingers 7.12502
rthumb 8.77701 -55.7971
lclavicle -6.60959e-015 -1.88845e-014
lhumerus -19.9644 5.92875 85.3173
lradius 16.8909
lwrist -2.52709
lhand -23.6814 -2.79151
lfingers 7.12502
lthumb 2.7851 27.1701
rfemur -13.3415 -2.07726 19.3449
rtibia 21.5272
rfoot -13.4591 -3.23511
rtoes 6.64332
lfemur -12.8163 7.29246 -17.8447
ltibia 20.1141
lfoot -11.3257 4.95706
ltoes -0.580079
94
root 0.466798 17.5349 -14.1451 6.21064 -1.00489 -1.59144
lowerback -1.81686 -0.273379 0.0209034
upperback 3.37026 -0.427705 1.53043
thorax 4.50505 -0.241406 1.54394
lowerneck -13.9517 -0.338233 -2.71521
upperneck 28.3979 -0.485608 2.40055
head 11.5694 -0.212695 1.28663
rclavicle -1.39149e-015 9.14409e-015
rhumerus -22.282 -18.7797 -79.8943
rradius 22.3572
rwrist 35.9751
rhand -17.4776 -26.0003
rfingers 7.12502
rthumb 8.77444 -55.7979
lclavicle -1.39149e-015 9.14409e-015
lhumerus -19.9578 5.89806 85.3316
lradius 16.8989
lwrist -2.51265
lhand -23.6699 -2.77101
lfingers 7.12502
lthumb 2.79616 27.1904
rfemur -13.353 -2.07793 19.3432
rtibia 21.5454
rfoot -13.4644 -3.2421
rtoes 6.63433
lfemur -12.8264 7.28428 -17.8468
ltibia 20.1244
lfoot -11.3252 4.95761
ltoes -0.580316
95
root 0.466116 17.5346 -14.1465 6.20992 -0.995729 -1.58495
lowerback -1.80727 -0.273706 0.00912673
upperback 3.37244 -0.427525 1.52848
thorax 4.50194 -0.241684 1.54857
lowerneck -13.9515 -0.337349 -2.7132
upperneck 28.4047 -0.486911 2.40716
head 11.572 -0.212253 1.28863
rclavicle 2.03754e-015 -3.37934e-015
rhumerus -22.2741 -18.7775 -79.9006
rradius 22.3636
rwrist 35.9745
rhand -17.4789 -26.0023
rfingers 7.12502
rthumb 8.77326 -55.7999
lclavicle 2.03754e-015 -3.37934e-015
lhumerus -19.9522 5.85533 85.347
lradius 16.9093
lwrist -2.49173
lhand -23.6598 -2.75859
lfingers 7.12502
lthumb 2.80595 27.2027
rfemur -13.366 -2.07851 19.3388
rtibia 21.5655
rfoot -13.47 -3.25091
rtoes 6.63152
lfemur -12.838 7.27483 -17.8514
ltibia 20.1349
lfoot -11.3252 4.9567
ltoes -0.580357
96
root 0.465456 17.5342 -14.1479 6.20954 -0.985827 -1.57968
lowerback -1.79685 -0.274764 -0.00170224
upperback 3.37299 -0.428364 1.52732
thorax 4.49668 -0.242438 1.55342
lowerneck -13.9489 -0.334153 -2.70322
upperneck 28.4124 -0.485595 2.40859
head 11.5744 -0.210442 1.28771
rclavicle 4.87022e-015 7.95139e-016
rhumerus -22.2697 -18.7728 -79.9065
rradius 22.3702
rwrist 35.9725
rhand -17.4821 -26.0061
rfingers 7.12502
rthumb 8.77012 -55.8038
lclavicle 4.87022e-015 7.95139e-016
lhumerus -19.9494 5.80919 85.3628
lradius 16.9233
lwrist -2.46612
lhand -23.6472 -2.73927
lfingers 7.12502
lthumb 2.8181 27.2219
rfemur -13.3798 -2.07961 19.3359
rtibia 21.5859
rfoot -13.4756 -3.26075
rtoes 6.6206
lfemur -12.8503 7.26609 -17.8548
ltibia 20.1461
lfoot -11.3253 4.95468
ltoes -0.582606
